#!OML:ASF X:\für Bonn\!DataBase\2005_08_12_Daniel\c3d\Daniel.ASF
:FULLY-SPECIFIED
:DEGREES
361
root 16.2026 1.26953 1.12584 -786.403 -86.2243 -415.252
lowerback 35.4314 -3.12381 1.18839
upperback 7.82582 -4.66441 -0.874809
thorax -9.17406 -2.69777 0.316253
lowerneck -1.10496 3.498 -6.03206
upperneck 2.05493 4.73187 -0.516638
head 0.684818 2.28572 0.876421
rclavicle -7.15625e-014 1.49784e-013
rhumerus -35.7896 15.4857 -91.2096
rradius 29.6103
rwrist 4.97861
rhand -23.6086 -351.398
rfingers 7.12502
rthumb 2.85538 -381.358
lclavicle -7.15625e-014 1.49784e-013
lhumerus -755.692 21.6653 -649.051
lradius 26.4472
lwrist -39.6078
lhand -13.9882 353.809
lfingers 7.12502
lthumb 12.1405 383.437
rfemur 361.942 -10.9896 369.04
rtibia 70.7483
rfoot 33.0761 -13.8721
rtoes 19.9719
lfemur -2.31203 -0.355518 -9.46459
ltibia 71.3091
lfoot 38.5232 3.65337
ltoes 5.64711
362
root 16.1944 1.27018 1.12798 -786.868 -86.2747 -414.696
lowerback 35.3217 -3.08971 1.19007
upperback 7.74002 -4.60605 -0.855104
thorax -9.22712 -2.66262 0.311556
lowerneck -1.28317 3.4936 -6.16779
upperneck 1.99667 4.73716 -0.444956
head 0.692048 2.28845 0.924915
rclavicle 6.91771e-014 -1.66432e-013
rhumerus -35.9762 15.0341 -91.0328
rradius 28.8604
rwrist 6.48837
rhand -23.6373 -351.16
rfingers 7.12502
rthumb 2.8276 -381.121
lclavicle 6.91771e-014 -1.66432e-013
lhumerus -755.94 21.3674 -649.005
lradius 26.2528
lwrist -40.0713
lhand -13.8157 354.031
lfingers 7.12502
lthumb 12.3069 383.648
rfemur 362.015 -10.9769 369.077
rtibia 70.4847
rfoot 33.9091 -14.4424
rtoes 19.6762
lfemur -1.49402 -0.84749 -9.89664
ltibia 69.586
lfoot 37.5383 3.85383
ltoes 4.81817
363
root 16.1856 1.27142 1.12947 -787.178 -86.3253 -414.284
lowerback 35.168 -3.05214 1.18925
upperback 7.68282 -4.54524 -0.827871
thorax -9.23115 -2.62798 0.311833
lowerneck -1.49434 3.47535 -6.30288
upperneck 1.95339 4.72735 -0.392343
head 0.710417 2.28287 0.968425
rclavicle -9.70069e-014 1.28017e-013
rhumerus -36.1173 14.5271 -90.818
rradius 28.0827
rwrist 8.06023
rhand -23.6332 -350.976
rfingers 7.12502
rthumb 2.83156 -380.937
lclavicle -9.70069e-014 1.28017e-013
lhumerus -756.157 21.1286 -648.956
lradius 26.0642
lwrist -40.6192
lhand -13.6227 354.117
lfingers 7.12502
lthumb 12.4929 383.724
rfemur 362.093 -10.9636 369.152
rtibia 70.1903
rfoot 34.8322 -14.8468
rtoes 19.4834
lfemur -0.635057 -1.39772 -10.3566
ltibia 67.761
lfoot 36.5067 4.05598
ltoes 4.19967
364
root 16.1798 1.27327 1.13015 -787.198 -86.3793 -414.172
lowerback 34.9134 -3.01956 1.19787
upperback 7.74123 -4.49092 -0.802629
thorax -9.19231 -2.5991 0.309881
lowerneck -1.76429 3.46067 -6.42924
upperneck 1.92581 4.72739 -0.329005
head 0.743347 2.28191 1.01568
rclavicle 3.57812e-014 -1.14947e-013
rhumerus -36.18 13.9489 -90.5614
rradius 27.2827
rwrist 9.67582
rhand -23.5839 -350.807
rfingers 7.12502
rthumb 2.87918 -380.768
lclavicle 3.57812e-014 -1.14947e-013
lhumerus -756.34 21.0344 -648.951
lradius 25.8332
lwrist -41.3691
lhand -13.4516 354.142
lfingers 7.12502
lthumb 12.6578 383.738
rfemur 362.213 -10.9506 369.253
rtibia 69.8281
rfoot 35.7573 -15.1158
rtoes 19.366
lfemur 0.274407 -1.94875 -10.8081
ltibia 65.8583
lfoot 35.4647 4.19639
ltoes 3.96155
365
root 16.1796 1.27585 1.13 -787.081 -86.4182 -414.183
lowerback 34.7194 -2.99639 1.21435
upperback 7.72082 -4.44687 -0.787958
thorax -9.14272 -2.57475 0.290933
lowerneck -2.03914 3.44315 -6.52119
upperneck 1.89392 4.72397 -0.28052
head 0.777039 2.27947 1.05261
rclavicle 7.15625e-015 -1.97791e-014
rhumerus -36.1886 13.2614 -90.2723
rradius 26.4345
rwrist 11.3476
rhand -23.4422 -350.666
rfingers 7.12502
rthumb 3.01605 -380.625
lclavicle 7.15625e-015 -1.97791e-014
lhumerus -756.504 20.8785 -648.948
lradius 25.6035
lwrist -42.0602
lhand -13.2253 354.146
lfingers 7.12502
lthumb 12.876 383.729
rfemur 362.364 -10.9027 369.389
rtibia 69.3558
rfoot 36.5815 -15.3432
rtoes 19.2373
lfemur 1.20968 -2.53502 -11.2858
ltibia 63.8966
lfoot 34.4593 4.4373
ltoes 4.05584
